<?xml version="1.0" encoding="UTF-8" standalone="no"?>
<svg
   xmlns:dc="http://purl.org/dc/elements/1.1/"
   xmlns:cc="http://creativecommons.org/ns#"
   xmlns:rdf="http://www.w3.org/1999/02/22-rdf-syntax-ns#"
   xmlns:svg="http://www.w3.org/2000/svg"
   xmlns="http://www.w3.org/2000/svg"
   xmlns:sodipodi="http://sodipodi.sourceforge.net/DTD/sodipodi-0.dtd"
   xmlns:inkscape="http://www.inkscape.org/namespaces/inkscape"
   version="1.1"
   x="0px"
   y="0px"
   viewBox="0 0 600 322.5"
   style="enable-background:new 0 0 600 258;"
   xml:space="preserve"
   id="svg200"
   sodipodi:docname="Logo.svg"
   inkscape:version="0.92.2 (5c3e80d, 2017-08-06)"><sodipodi:namedview
     pagecolor="#ffffff"
     bordercolor="#666666"
     borderopacity="1"
     objecttolerance="10"
     gridtolerance="10"
     guidetolerance="10"
     inkscape:pageopacity="0"
     inkscape:pageshadow="2"
     inkscape:window-width="1920"
     inkscape:window-height="1017"
     id="namedview202"
     showgrid="false"
     showborder="false"
     inkscape:zoom="0.81081578"
     inkscape:cx="740.16317"
     inkscape:cy="150.00755"
     inkscape:window-x="1912"
     inkscape:window-y="-8"
     inkscape:window-maximized="1"
     inkscape:current-layer="svg200" /><metadata
     id="metadata206"><rdf:RDF><cc:Work
         rdf:about=""><dc:format>image/svg+xml</dc:format><dc:type
           rdf:resource="http://purl.org/dc/dcmitype/StillImage" /><dc:title></dc:title></cc:Work></rdf:RDF></metadata><defs
     id="defs204"><inkscape:path-effect
       vertical="false"
       scale_y_rel="false"
       prop_scale="1"
       bendpath="M 515.40698,76.569767 C 672.38372,132.38372 808.43023,68.72093 808.43023,68.72093"
       is_visible="true"
       id="path-effect5304"
       effect="bend_path" /><inkscape:path-effect
       vertical="false"
       scale_y_rel="false"
       prop_scale="1"
       bendpath="m 525.39678,132.56783 c 146.76577,12.94992 228.16527,115.93262 343.48123,140.59914"
       is_visible="true"
       id="path-effect5294"
       effect="bend_path" /><inkscape:path-effect
       vertical="false"
       scale_y_rel="false"
       prop_scale="1"
       bendpath="m 518.61349,160.31766 c 106.06602,60.43296 263.31506,-51.79968 405.14752,28.98316"
       is_visible="true"
       id="path-effect5284"
       effect="bend_path" /><inkscape:path-effect
       vertical="false"
       scale_y_rel="false"
       prop_scale="1"
       bendpath="M 490.98837,94.883721 C 663.66279,80.058139 771.80233,-11.511628 1005.5233,13.77907"
       is_visible="true"
       id="path-effect5254"
       effect="bend_path" /><inkscape:path-effect
       vertical="false"
       scale_y_rel="false"
       prop_scale="1"
       bendpath="m 120.86593,-135.06386 c 471.13045,-119.63261 661.06262,64.132936 661.06262,64.132936"
       is_visible="true"
       id="path-effect5193"
       effect="bend_path" /></defs><path
     id="path5195"
     d="M 906.11523 5.5078125 C 889.01487 5.4672071 870.19713 6.146845 850.1543 8.0175781 C 816.74228 11.146705 781.61683 17.458594 743.86328 27.185547 C 736.99436 28.955279 730.21345 30.793024 723.53125 32.679688 C 681.55175 44.525257 643.37023 57.668417 610.08203 67.650391 C 606.95701 68.587058 603.90724 69.486006 600.91406 70.357422 L 628.70508 70.357422 C 632.43618 70.357422 635.79562 70.391026 638.8457 70.460938 C 666.14855 63.16713 695.8632 54.431667 727.19531 45.896484 C 733.81964 44.093096 740.53139 42.310554 747.31055 40.564453 C 784.74233 30.923188 818.65221 23.872992 851.46289 19.376953 C 896.17088 13.236474 935.20977 12.275895 962.30273 12.466797 C 989.60086 12.659144 1005.5234 13.779297 1005.5234 13.779297 C 1005.5234 13.779297 989.84762 10.797398 962.51562 8.234375 C 947.24969 6.8028307 928.10141 5.5600194 906.11523 5.5078125 z M 808.4043 68.732422 C 808.3879 68.739522 808.36234 68.750019 808.32812 68.761719 C 808.26184 68.786942 808.15288 68.826351 808.01367 68.863281 C 807.7252 68.960668 807.34438 69.086819 806.79102 69.267578 C 805.96987 69.535811 804.64113 69.948975 803.32422 70.357422 L 805.50391 70.357422 C 806.02391 70.075976 806.5361 69.798465 806.92773 69.580078 C 807.43234 69.298685 807.79201 69.093157 808.05078 68.943359 C 808.1698 68.86348 808.27033 68.807078 808.33203 68.773438 C 808.36303 68.755146 808.3884 68.740322 808.4043 68.732422 z M 800.14648 71.326172 C 796.05324 72.544592 790.86583 74.008893 784.01562 75.742188 C 775.10598 77.996406 764.52992 80.397153 752.35156 82.685547 L 755.55469 90.683594 C 767.22144 87.074935 777.20717 83.303407 785.39453 79.861328 C 791.58231 77.259991 796.39948 74.99164 800.14648 73.125 L 800.14648 71.326172 z M 587.6875 74.115234 C 573.41876 78.0769 560.68104 81.294902 549.19727 83.945312 C 548.56849 83.82854 547.88788 83.712497 547.27148 83.595703 C 527.2793 79.807597 515.40625 76.570312 515.40625 76.570312 C 515.40625 76.570312 523.71322 80.805503 538.72266 86.283203 C 533.65099 87.378273 528.77188 88.389287 524.17578 89.283203 C 503.17058 93.368598 490.98828 94.882812 490.98828 94.882812 C 490.98828 94.882812 503.2589 94.809806 524.66992 92.634766 C 531.87153 91.903189 539.83927 90.921957 548.46289 89.671875 C 559.38236 93.287281 572.56466 96.997984 587.6875 99.998047 L 587.6875 89.595703 C 580.10486 88.770673 572.97278 87.828064 566.32812 86.824219 C 573.0625 85.647051 580.18426 84.290561 587.6875 82.738281 L 587.6875 74.115234 z M 594.88672 77.556641 L 594.88672 81.191406 C 600.07007 80.066914 605.37187 78.880196 610.92188 77.556641 L 594.88672 77.556641 z M 745.12109 83.996094 C 737.2958 85.358634 728.89888 86.663157 719.81055 87.837891 C 719.45292 87.884056 719.08538 87.925057 718.72656 87.970703 L 713.71094 100.8457 C 716.41735 100.35895 719.09725 99.855316 721.72461 99.320312 C 724.46297 98.763088 727.12784 98.17997 729.75 97.583984 L 732.3418 90.464844 L 734.56641 96.455078 C 739.46999 95.268912 744.15974 94.026384 748.625 92.748047 L 745.12109 83.996094 z M 710.62305 88.939453 C 700.80074 90.050502 690.56068 90.957563 679.91797 91.597656 C 681.69121 95.601195 682.76085 100.07858 683.16406 104.95703 C 690.82201 104.26634 698.25856 103.34289 705.44922 102.22461 L 710.62305 88.939453 z M 594.88672 90.330078 L 594.88672 101.33398 C 600.05943 102.24208 605.43348 103.05959 611.00586 103.75781 L 611.00586 93.494141 L 611.00586 91.599609 C 605.4408 91.247275 600.06453 90.82017 594.88672 90.330078 z M 672.07227 92.017578 C 668.8788 92.166791 665.66422 92.299852 662.40234 92.398438 C 657.85076 92.535998 653.37851 92.602279 648.94727 92.632812 C 651.10532 93.718327 653.05196 95.170098 654.69531 96.988281 C 657.02624 99.567175 658.47631 102.76531 659.04688 106.29102 C 660.30071 106.26726 661.5562 106.24121 662.81836 106.20312 C 667.27675 106.06862 671.65943 105.82881 675.99219 105.5293 C 675.56142 100.21008 674.23725 95.750796 672.07227 92.017578 z M 618.20508 97.09375 L 618.20508 104.57617 C 621.1123 104.87618 624.05151 105.15412 627.05469 105.38281 C 635.05894 105.99217 643.30511 106.32471 651.75195 106.34766 C 651.32309 104.56951 650.52588 103.11349 649.35352 101.81641 C 647.39832 99.653207 645.09986 98.382152 642.00977 97.824219 L 641.99609 97.822266 L 641.98242 97.818359 C 639.84758 97.415559 634.19692 97.09375 625.86914 97.09375 L 618.20508 97.09375 z M 527.31641 132.55859 C 526.05132 132.55091 525.39648 132.56836 525.39648 132.56836 C 525.39648 132.56836 535.78793 134.03799 553.25781 138.23438 C 563.02679 140.58095 574.61541 143.75674 587.6875 148.13867 L 587.6875 140.08008 C 574.82486 137.17718 563.43362 135.42166 553.93945 134.34961 C 540.39562 132.82028 531.11166 132.58164 527.31641 132.55859 z M 594.88672 141.78906 L 594.88672 150.62695 C 600.0585 152.46427 605.43584 154.48843 611.00586 156.71875 L 611.00586 146.24414 C 605.43517 144.55348 600.05884 143.07997 594.88672 141.78906 z M 618.20508 149.48047 L 618.20508 159.67188 C 619.71288 160.3063 621.22888 160.94848 622.76172 161.61328 C 629.26912 164.43365 635.71541 167.41187 642.19531 170.53906 C 633.84606 171.69831 625.94973 172.63368 618.20508 173.35156 L 618.20508 183.61523 C 630.41936 183.31981 643.09698 182.35237 656.81641 180.85742 C 658.42006 180.68309 660.01353 180.49784 661.60742 180.31445 C 665.2621 182.22363 668.97727 184.20992 672.72852 186.23242 L 681.20703 164.46289 C 675.64379 165.37114 670.07715 166.28461 664.53125 167.16797 C 651.73136 161.12819 639.2285 155.89988 626.77148 151.44727 C 624.86372 150.7658 622.97555 150.11274 621.10352 149.48047 L 618.20508 149.48047 z M 789.04883 152.79102 C 786.22347 152.80356 783.36199 152.8607 780.48242 152.93945 L 785.42773 165.29297 C 790.4185 165.00552 795.32085 164.80476 800.14648 164.69336 L 800.14648 152.93359 C 796.48772 152.83165 792.79628 152.77437 789.04883 152.79102 z M 807.3457 153.21289 L 807.3457 164.5918 C 810.00261 164.58125 812.64754 164.58972 815.26953 164.63867 C 818.05422 164.6907 820.77913 164.7828 823.46484 164.90039 L 823.46484 154.44922 C 820.95368 154.18248 818.40158 153.94587 815.80469 153.74219 C 813.01152 153.52302 810.18662 153.35604 807.3457 153.21289 z M 772.8418 153.22461 C 768.82374 153.41103 764.76353 153.64425 760.63086 153.95117 C 747.64239 154.91397 734.524 156.4137 720.98828 158.29688 C 717.93851 158.72118 714.91341 159.16305 711.90234 159.61133 L 758.24414 159.61133 L 761.17773 167.24414 C 761.37978 167.22364 761.58314 167.2 761.78516 167.17969 C 767.27648 166.62828 772.62235 166.16795 777.87109 165.78516 L 772.8418 153.22461 z M 830.66406 155.31445 L 830.66406 165.29883 C 841.86962 166.04988 852.17576 167.36946 861.71094 169.11133 L 859.83594 166.31445 L 859.83398 166.31055 C 858.24785 163.93135 856.80657 161.82 855.48047 159.91016 C 847.75091 158.06717 839.50276 156.49453 830.66406 155.31445 z M 518.61328 160.31836 C 518.61328 160.31836 532.04836 171.28995 560.14258 178.23828 C 568.47294 180.29792 577.57976 181.83487 587.6875 182.74805 L 587.6875 174.81445 C 578.05142 174.75333 569.33338 174.12306 561.17188 172.96289 C 533.54623 169.04038 518.61328 160.31836 518.61328 160.31836 z M 706.80859 160.37695 C 706.79565 160.37894 706.78247 160.38083 706.76953 160.38281 C 701.02247 161.26163 695.24127 162.19056 689.45312 163.12891 L 680.60547 185.84375 L 697.55469 185.84375 L 698.06641 184.43359 C 693.64074 181.99149 689.25064 179.60734 684.92383 177.3418 C 690.28521 176.60607 695.90366 175.8005 701.49414 175.00391 L 706.80859 160.37695 z M 866.07617 162.69141 L 871.75977 171.16406 C 881.01612 173.24266 889.1505 175.55858 896.06055 177.83398 L 892.4668 172.09375 C 886.18251 169.41024 878.9974 166.67921 870.83398 164.11328 C 869.28135 163.62559 867.68218 163.15649 866.07617 162.69141 z M 712.13086 166.81055 L 709.56836 173.86328 C 713.97085 173.23469 718.43053 172.59945 722.89258 171.97852 C 733.50845 170.5012 743.69688 169.1689 753.77148 168.04102 L 753.29883 166.81055 L 712.13086 166.81055 z M 611.00586 173.97266 C 609.53696 174.08079 608.07189 174.18028 606.60742 174.26953 C 602.54171 174.51573 598.65215 174.67015 594.88672 174.75195 L 594.88672 183.27148 C 598.73169 183.49601 602.69775 183.64532 606.83203 183.69336 C 608.21724 183.71 609.61207 183.70563 611.00586 183.70312 L 611.00586 173.97266 z M 904.44727 177.66211 L 907.00195 181.74219 C 917.91033 185.97384 923.76172 189.30078 923.76172 189.30078 C 923.76172 189.30078 917.26252 184.15787 904.44727 177.66211 z M 704.44141 187.97461 L 702.59961 193.04297 L 685.1875 193.04297 C 689.08958 195.20352 693.04035 197.40429 697.11523 199.70117 C 699.92831 201.28681 702.72988 202.8725 705.50586 204.44727 C 735.95881 221.74316 758.85552 234.92216 784.96484 246.99609 C 809.73795 258.46658 829.54426 264.8494 845.17578 268.66211 C 860.14096 272.31229 868.87891 273.16602 868.87891 273.16602 C 868.87891 273.16602 860.39231 270.88793 846.18359 265.43164 C 831.02777 259.61165 813.08628 251.45854 789.43359 238.23047 C 766.68853 225.49694 740.97486 209.05956 712.35547 192.5 C 709.74534 190.988 707.10303 189.47894 704.44141 187.97461 z "
     style="opacity:1;vector-effect:none;fill:#f16500;fill-opacity:1;stroke:none;stroke-width:1;stroke-linecap:butt;stroke-linejoin:miter;stroke-miterlimit:4;stroke-dasharray:none;stroke-dashoffset:0;stroke-opacity:1"
     inkscape:export-xdpi="260.76001"
     inkscape:export-ydpi="260.76001" /><path
     id="path5165"
     d="m 559.5,221.5 h -482 c -3.2,0 -5.8,-2.6 -5.8,-5.8 v -168 c 0,-3.2 2.6,-5.8 5.8,-5.8 h 482 c 3.2,0 5.8,2.6 5.8,5.8 v 168 c 0,3.2 -2.6,5.8 -5.8,5.8 z"
     inkscape:export-xdpi="260.76001"
     inkscape:export-ydpi="260.76001" /><path
     style="fill:#3e3e3e;fill-opacity:1"
     id="path190"
     d="M 83.3,209.9 H 553.7 V 53.5 H 83.3 Z"
     inkscape:export-xdpi="260.76001"
     inkscape:export-ydpi="260.76001" /><path
     style="fill:#000000;opacity:0.441"
     d="M 198.45117 71.988281 C 186.94987 71.988281 176.78776 74.351562 167.96484 79.078125 C 159.14193 83.804687 152.3672 91.052085 147.64062 100.82031 C 142.9666 110.53602 140.62891 121.01323 140.62891 132.25195 C 140.62891 143.5957 142.99219 153.86219 147.71875 163.05273 C 148.01416 163.62714 148.3178 164.19242 148.63086 164.75 C 148.63456 164.75658 148.63888 164.76295 148.64258 164.76953 C 148.95865 165.33191 149.2851 165.88639 149.61914 166.43164 C 149.6466 166.47647 149.67554 166.51974 149.70312 166.56445 C 150.00956 167.06116 150.32115 167.55274 150.64258 168.03516 C 150.84895 168.34489 151.06479 168.64537 151.27734 168.94922 C 151.41729 169.14928 151.55269 169.35328 151.69531 169.55078 C 152.05024 170.04228 152.41365 170.52627 152.78516 171.00195 C 152.79484 171.01435 152.80476 171.02668 152.81445 171.03906 C 153.0304 171.31501 153.25502 171.5829 153.47656 171.85352 C 153.66735 172.08657 153.85389 172.32364 154.04883 172.55273 C 154.1671 172.69173 154.29036 172.82535 154.41016 172.96289 C 154.69897 173.2945 154.98747 173.62607 155.28516 173.94922 C 155.43883 174.11604 155.59982 174.27684 155.75586 174.44141 C 156.02619 174.7265 156.29484 175.01268 156.57227 175.29102 C 156.59078 175.30959 156.60841 175.32912 156.62695 175.34766 L 191.17969 209.90039 L 553.69922 209.90039 L 553.69922 142.26367 L 485.39258 73.957031 L 470.10938 73.957031 L 470.10938 134.2207 L 409.8457 73.957031 L 394.5625 73.957031 L 394.5625 120.84375 L 357.15234 83.433594 C 356.89452 83.175773 356.63021 82.924627 356.36328 82.679688 C 356.35923 82.675968 356.35562 82.671684 356.35156 82.667969 C 356.35052 82.667011 356.3487 82.666974 356.34766 82.666016 C 355.95864 82.30964 355.55873 81.969678 355.15039 81.640625 C 355.0605 81.568195 354.96973 81.496888 354.87891 81.425781 C 354.46753 81.103701 354.04972 80.791013 353.61914 80.496094 C 349.78537 77.817708 345.03321 76.005859 339.36133 75.060547 C 335.31749 74.325304 329.46246 73.957031 321.79492 73.957031 L 278.23047 73.957031 L 278.23047 128.31445 L 234.54883 84.632812 C 234.40778 84.49177 234.25538 84.359545 234.11133 84.220703 C 233.92635 84.04242 233.74072 83.864106 233.55078 83.689453 C 233.17067 83.339931 232.77888 82.999042 232.37891 82.664062 C 232.22087 82.531705 232.06739 82.395713 231.90625 82.265625 C 231.32933 81.79989 230.73581 81.346786 230.11914 80.910156 C 229.5225 80.487708 228.90144 80.082699 228.26758 79.6875 C 228.04135 79.546456 227.80714 79.41101 227.57617 79.273438 C 227.13806 79.012484 226.69345 78.756276 226.23828 78.507812 C 225.99073 78.37268 225.74088 78.23886 225.48828 78.107422 C 225.00276 77.854789 224.50611 77.610076 224.00195 77.371094 C 223.77795 77.264909 223.55776 77.156224 223.33008 77.052734 C 222.59109 76.716851 221.83831 76.391474 221.06055 76.083984 C 214.33833 73.353082 206.80143 71.988281 198.45117 71.988281 z "
     id="path6224"
     inkscape:export-xdpi="260.76001"
     inkscape:export-ydpi="260.76001" /><g
     id="text5161"
     style="font-style:normal;font-variant:normal;font-weight:normal;font-stretch:normal;font-size:161.33332825px;line-height:1.25;font-family:Arial;-inkscape-font-specification:Arial;letter-spacing:0px;word-spacing:0px;fill:#139cff;fill-opacity:1;stroke:none"
     aria-label="GPU "
     inkscape:export-xdpi="260.76001"
     inkscape:export-ydpi="260.76001"><path
       id="path5167"
       style="font-size:161.33332825px;letter-spacing:8.33000278px;fill:#139cff;fill-opacity:1"
       d="m 198.52985,144.14662 v -13.54948 l 48.91992,-0.0788 v 42.85417 q -11.26497,8.98047 -23.23893,13.54948 -11.97395,4.49023 -24.57812,4.49023 -17.01563,0 -30.95898,-7.24739 -13.86459,-7.32618 -20.95443,-21.11198 -7.08984,-13.78581 -7.08984,-30.80143 0,-16.85808 7.01106,-31.43164 7.08985,-14.652347 20.32422,-21.74219 13.23438,-7.089844 30.48633,-7.089844 12.52539,0 22.60872,4.096354 10.16211,4.017578 15.91276,11.264974 5.75065,7.247395 8.74414,18.906246 l -13.78581,3.78125 q -2.5996,-8.82291 -6.45963,-13.86458 -3.86003,-5.041666 -11.02865,-8.035156 -7.16862,-3.072265 -15.91276,-3.072265 -10.47721,0 -18.11848,3.229817 -7.64128,3.151042 -12.36784,8.35026 -4.64779,5.199224 -7.2474,11.422524 -4.41146,10.71354 -4.41146,23.23893 0,15.44011 5.278,25.83854 5.35677,10.39844 15.51888,15.44011 10.16211,5.04166 21.58463,5.04166 9.92578,0 19.37891,-3.78125 9.45312,-3.86002 14.33724,-8.1927 v -21.50586 z" /><path
       id="path5169"
       style="font-size:161.33332825px;letter-spacing:8.33000278px;fill:#139cff;fill-opacity:1"
       d="M 278.23095,189.44284 V 73.957167 h 43.56315 q 11.5013,0 17.56705,1.102865 8.50782,1.417968 14.25847,5.435546 5.75065,3.938802 9.21679,11.107422 3.54492,7.168619 3.54492,15.75521 0,14.73112 -9.37434,24.972 -9.37435,10.16211 -33.8737,10.16211 H 293.5135 v 46.95052 z m 15.28255,-60.57877 h 29.85612 q 14.80989,0 21.0332,-5.51433 6.22331,-5.51432 6.22331,-15.51888 0,-7.24739 -3.70248,-12.367834 -3.6237,-5.199219 -9.61067,-6.853516 -3.86003,-1.024088 -14.25847,-1.024088 H 293.5135 Z" /><path
       id="path5171"
       style="font-size:161.33332825px;letter-spacing:8.33000278px;fill:#139cff;fill-opacity:1"
       d="m 470.10912,73.957167 h 15.28255 v 66.723303 q 0,17.40951 -3.9388,27.65039 -3.9388,10.24089 -14.25846,16.70052 -10.24089,6.38086 -26.94141,6.38086 -16.22786,0 -26.54752,-5.5931 -10.31966,-5.5931 -14.73112,-16.14909 -4.41146,-10.63476 -4.41146,-28.98958 V 73.957167 h 15.28255 V 140.6017 q 0,15.04622 2.75716,22.21484 2.83594,7.08984 9.61068,10.94987 6.85352,3.86002 16.70052,3.86002 16.85807,0 24.02669,-7.64127 7.16862,-7.64128 7.16862,-29.38346 z" /></g><path
     inkscape:connector-curvature="0"
     id="path158"
     d="m 59.4,234.5 c -3.2,0 -5.8,-2.6 -5.8,-5.8 V 31.9 H 40.5 c -3.2,0 -5.8,-2.6 -5.8,-5.8 0,-3.2 2.6,-5.8 5.8,-5.8 h 18.9 c 3.2,0 5.8,2.6 5.8,5.8 v 202.6 c 0,3.2 -2.6,5.8 -5.8,5.8 z"
     inkscape:export-xdpi="260.76001"
     inkscape:export-ydpi="260.76001" /><path
     inkscape:connector-curvature="0"
     id="path162"
     d="M 59.4,85.2 H 41.6 c -3.2,0 -5.8,-2.6 -5.8,-5.8 v -29 c 0,-3.2 2.6,-5.8 5.8,-5.8 h 17.8 c 3.2,0 5.8,2.6 5.8,5.8 v 29 c 0,3.2 -2.6,5.8 -5.8,5.8 z m -12,-11.6 h 6.2 V 56.3 h -6.2 z"
     inkscape:export-xdpi="260.76001"
     inkscape:export-ydpi="260.76001" /><path
     inkscape:connector-curvature="0"
     id="path166"
     d="M 58.9,191.4 H 41 c -3.2,0 -5.8,-2.6 -5.8,-5.8 V 97.3 c 0,-3.2 2.6,-5.8 5.8,-5.8 h 17.8 c 3.2,0 5.8,2.6 5.8,5.8 v 88.3 c 0.1,3.2 -2.5,5.8 -5.7,5.8 z M 46.8,179.8 H 53 v -76.7 h -6.2 z"
     inkscape:export-xdpi="260.76001"
     inkscape:export-ydpi="260.76001" /><path
     inkscape:connector-curvature="0"
     id="path170"
     d="m 122,237.7 h -19.1 c -3.2,0 -5.8,-2.6 -5.8,-5.8 v -16.2 c 0,-3.2 2.6,-5.8 5.8,-5.8 3.2,0 5.8,2.6 5.8,5.8 v 10.4 h 7.5 v -10.4 c 0,-3.2 2.6,-5.8 5.8,-5.8 3.2,0 5.8,2.6 5.8,5.8 v 16.2 c 0,3.2 -2.6,5.8 -5.8,5.8 z"
     inkscape:export-xdpi="260.76001"
     inkscape:export-ydpi="260.76001" /><path
     inkscape:connector-curvature="0"
     id="path174"
     d="m 338.5,237.7 h -19.1 c -3.2,0 -5.8,-2.6 -5.8,-5.8 v -16.2 c 0,-3.2 2.6,-5.8 5.8,-5.8 3.2,0 5.8,2.6 5.8,5.8 v 10.4 h 7.5 v -10.4 c 0,-3.2 2.6,-5.8 5.8,-5.8 3.2,0 5.8,2.6 5.8,5.8 v 16.2 c 0,3.2 -2.6,5.8 -5.8,5.8 z"
     inkscape:export-xdpi="260.76001"
     inkscape:export-ydpi="260.76001" /><path
     inkscape:connector-curvature="0"
     id="path178"
     d="M 301.4,237.7 H 139.5 c -3.2,0 -5.8,-2.6 -5.8,-5.8 v -16.2 c 0,-3.2 2.6,-5.8 5.8,-5.8 3.2,0 5.8,2.6 5.8,5.8 v 10.4 h 150.3 v -10.4 c 0,-3.2 2.6,-5.8 5.8,-5.8 3.2,0 5.8,2.6 5.8,5.8 v 16.2 c 0,3.2 -2.6,5.8 -5.8,5.8 z"
     inkscape:export-xdpi="260.76001"
     inkscape:export-ydpi="260.76001" /><path
     inkscape:connector-curvature="0"
     id="path182"
     d="M 75.7,65.4 H 59.4 c -3.2,0 -5.8,-2.6 -5.8,-5.8 0,-3.2 2.6,-5.8 5.8,-5.8 h 16.2 c 3.2,0 5.8,2.6 5.8,5.8 0,3.2 -2.5,5.8 -5.7,5.8 z"
     inkscape:export-xdpi="260.76001"
     inkscape:export-ydpi="260.76001" /><path
     inkscape:connector-curvature="0"
     id="path186"
     d="m 75.7,207.3 h -14 c -3.2,0 -5.8,-2.6 -5.8,-5.8 0,-3.2 2.6,-5.8 5.8,-5.8 h 13.9 c 3.2,0 5.8,2.6 5.8,5.8 0,3.2 -2.5,5.8 -5.7,5.8 z"
     inkscape:export-xdpi="260.76001"
     inkscape:export-ydpi="260.76001" /><flowRoot
     style="fill:black;fill-opacity:1;stroke:none;font-family:sans-serif;font-style:normal;font-weight:normal;font-size:40px;line-height:1.25;letter-spacing:0px;word-spacing:0px"
     id="flowRoot4951"
     xml:space="preserve"
     inkscape:export-xdpi="260.76001"
     inkscape:export-ydpi="260.76001"><flowRegion
       id="flowRegion4953"><rect
         y="273.78363"
         x="89.416122"
         height="133.19919"
         width="494.56363"
         id="rect4955" /></flowRegion><flowPara
       id="flowPara4957" /></flowRoot><text
     id="text4961"
     y="189.44284"
     x="579.5498"
     style="font-style:normal;font-variant:normal;font-weight:bold;font-stretch:normal;font-size:161.33332825px;line-height:1.25;font-family:Arial;-inkscape-font-specification:'Arial Bold';letter-spacing:0px;word-spacing:0px;fill:#f16500;fill-opacity:1;stroke:none;"
     xml:space="preserve"
     inkscape:export-xdpi="260.76001"
     inkscape:export-ydpi="260.76001"><tspan
       style="font-style:normal;font-variant:normal;font-weight:bold;font-stretch:normal;font-size:161.33332825px;font-family:Arial;-inkscape-font-specification:'Arial Bold';fill:#f16500;fill-opacity:1;"
       y="189.44284"
       x="579.5498"
       id="tspan4959"
       sodipodi:role="line">PARTICLES</tspan></text>
<circle
     r="13.953488"
     cy="29.91279"
     cx="611.77325"
     id="path5340"
     style="opacity:1;vector-effect:none;fill:#f16500;fill-opacity:1;stroke:none;stroke-width:1;stroke-linecap:butt;stroke-linejoin:miter;stroke-miterlimit:4;stroke-dasharray:none;stroke-dashoffset:0;stroke-opacity:1"
     inkscape:export-xdpi="260.76001"
     inkscape:export-ydpi="260.76001" /><circle
     r="20.120117"
     cy="223.83394"
     cx="667.22925"
     id="path5340-3"
     style="opacity:1;vector-effect:none;fill:#f16500;fill-opacity:1;stroke:none;stroke-width:1.44194174;stroke-linecap:butt;stroke-linejoin:miter;stroke-miterlimit:4;stroke-dasharray:none;stroke-dashoffset:0;stroke-opacity:1"
     inkscape:export-xdpi="260.76001"
     inkscape:export-ydpi="260.76001" /><circle
     r="10.253511"
     cy="230.00056"
     cx="867.02802"
     id="path5340-4"
     style="opacity:1;vector-effect:none;fill:#f16500;fill-opacity:1;stroke:none;stroke-width:0.73483497;stroke-linecap:butt;stroke-linejoin:miter;stroke-miterlimit:4;stroke-dasharray:none;stroke-dashoffset:0;stroke-opacity:1"
     inkscape:export-xdpi="260.76001"
     inkscape:export-ydpi="260.76001" /><circle
     r="11.019801"
     cy="42.535049"
     cx="876.89465"
     id="path5340-39"
     style="opacity:1;vector-effect:none;fill:#f16500;fill-opacity:1;stroke:none;stroke-width:0.78975242;stroke-linecap:butt;stroke-linejoin:miter;stroke-miterlimit:4;stroke-dasharray:none;stroke-dashoffset:0;stroke-opacity:1"
     inkscape:export-xdpi="260.76001"
     inkscape:export-ydpi="260.76001" /><circle
     r="9.6368484"
     cy="-20.364567"
     cx="743.69543"
     id="path5340-6"
     style="opacity:1;vector-effect:none;fill:#f16500;fill-opacity:1;stroke:none;stroke-width:0.69064081;stroke-linecap:butt;stroke-linejoin:miter;stroke-miterlimit:4;stroke-dasharray:none;stroke-dashoffset:0;stroke-opacity:1"
     inkscape:export-xdpi="260.76001"
     inkscape:export-ydpi="260.76001" /><circle
     r="4.0868821"
     cy="-96.830765"
     cx="786.86188"
     id="path5340-2"
     style="opacity:1;vector-effect:none;fill:#f16500;fill-opacity:1;stroke:none;stroke-width:0.29289323;stroke-linecap:butt;stroke-linejoin:miter;stroke-miterlimit:4;stroke-dasharray:none;stroke-dashoffset:0;stroke-opacity:1"
     inkscape:export-xdpi="260.76001"
     inkscape:export-ydpi="260.76001" /><circle
     r="5.9368706"
     cy="-26.531197"
     cx="662.29596"
     id="path5340-0"
     style="opacity:1;vector-effect:none;fill:#f16500;fill-opacity:1;stroke:none;stroke-width:0.42547575;stroke-linecap:butt;stroke-linejoin:miter;stroke-miterlimit:4;stroke-dasharray:none;stroke-dashoffset:0;stroke-opacity:1"
     inkscape:export-xdpi="260.76001"
     inkscape:export-ydpi="260.76001" /><circle
     r="6.5535336"
     cy="294.13351"
     cx="958.29413"
     id="path5340-5"
     style="opacity:1;vector-effect:none;fill:#f16500;fill-opacity:1;stroke:none;stroke-width:0.46966991;stroke-linecap:butt;stroke-linejoin:miter;stroke-miterlimit:4;stroke-dasharray:none;stroke-dashoffset:0;stroke-opacity:1"
     inkscape:export-xdpi="260.76001"
     inkscape:export-ydpi="260.76001" /><circle
     r="6.5535336"
     cy="37.601746"
     cx="1087.7933"
     id="path5340-9"
     style="opacity:1;vector-effect:none;fill:#f16500;fill-opacity:1;stroke:none;stroke-width:0.46966991;stroke-linecap:butt;stroke-linejoin:miter;stroke-miterlimit:4;stroke-dasharray:none;stroke-dashoffset:0;stroke-opacity:1"
     inkscape:export-xdpi="260.76001"
     inkscape:export-ydpi="260.76001" /></svg>